<?xml version="1.0" encoding="UTF-8" standalone="no"?>
<svg xmlns="http://www.w3.org/2000/svg" width="600" height="525">
  <path d="M597.6 499.6 313.8 8c-2.9-5-8.2-8-13.9-8-5.7 0-11 3.1-13.9 8L2.2 499.6c-2.9 5-2.9 11.1 0 16 2.9 5 8.2 8 13.9 8h567.6c5.7 0 11-3.1 13.9-8 2.9-5 2.9-11.1 0-16z"/>
  <path fill="#f6bd16" d="M44 491.52525977 300 50.03632646l256 441.48893331z" overflow="visible"/>
  <path stroke="#000" stroke-linecap="square" stroke-opacity=".4" stroke-width=".62514842" d="M-384.00937 417.52725a38.151581 36.156727 0 1 1-76.30316 0 38.151581 36.156727 0 1 1 76.30316 0z" transform="matrix(.9932 0 0 1.048 719.28979 -2.9357862)"/>
  <path stroke="#000" stroke-linecap="square" stroke-width=".88582677" d="M300 168.60074c-20.64745 0-37.26716 16.97292-37.26716 38.05658l11.01897 133.31318c2.10449 17.24457 3.90184 27.0149 11.01898 31.60966 4.64712 2.1172 9.79468 3.32214 15.22921 3.32214 5.40832 0 10.53383-1.1913 15.16343-3.28925 7.15697-4.58178 8.97556-14.35941 11.08476-31.64255l11.01898-133.31318c0-21.08366-16.61973-38.05658-37.26717-38.05658z"/>
</svg>